<svg width="265" height="355" viewBox="0 0 265 355" fill="none" xmlns="http://www.w3.org/2000/svg">
<path fill-rule="evenodd" clip-rule="evenodd" d="M252.821 38.6797C260.656 38.6798 266.312 46.1802 264.159 53.7139L201.474 273H114.042C106.207 273 100.55 265.5 102.704 257.967L128.05 169.296C128.077 169.296 128.107 169.295 128.139 169.293C128.353 169.278 128.515 169.347 128.578 169.481C128.633 169.598 128.75 169.679 128.838 169.663C128.926 169.647 129.017 169.734 129.04 169.857C129.069 170.009 129.223 170.105 129.515 170.153C129.753 170.193 129.951 170.28 129.956 170.349C129.993 170.847 130.099 170.964 130.516 170.965C130.835 170.965 130.937 171.014 130.911 171.155C130.888 171.278 130.961 171.352 131.119 171.363C131.253 171.373 131.381 171.478 131.404 171.599C131.431 171.744 131.527 171.802 131.69 171.771C131.878 171.737 131.931 171.783 131.917 171.969C131.904 172.149 131.957 172.201 132.12 172.171C132.264 172.144 132.357 172.211 132.385 172.362C132.409 172.491 132.506 172.579 132.602 172.562C132.701 172.543 132.795 172.633 132.821 172.771C132.848 172.918 132.964 173.021 133.113 173.032C133.288 173.045 133.351 173.116 133.33 173.28C133.309 173.455 133.361 173.5 133.542 173.466C133.704 173.436 133.795 173.496 133.825 173.653C133.846 173.766 133.922 173.848 134.005 173.854L134.078 173.851C134.16 173.856 134.237 173.934 134.256 174.039C134.279 174.16 134.406 174.265 134.54 174.274C134.686 174.285 134.772 174.362 134.752 174.466C134.737 174.55 134.812 174.622 134.972 174.676L135.331 174.766C135.49 174.815 135.604 174.882 135.608 174.934C135.645 175.451 135.749 175.574 136.092 175.511C136.36 175.461 136.483 175.51 136.608 175.715C136.698 175.863 136.825 175.974 136.89 175.962C136.955 175.95 137.028 176.044 137.052 176.172C137.087 176.359 137.173 176.389 137.501 176.328C137.824 176.268 137.915 176.298 137.949 176.476C137.982 176.653 138.125 176.702 138.64 176.713C139.092 176.722 139.318 176.787 139.383 176.925C139.457 177.081 139.648 177.109 140.289 177.056C141.457 176.959 141.623 176.982 141.605 177.236C141.594 177.382 141.673 177.459 141.843 177.472C142.003 177.483 142.084 177.556 142.063 177.671C142.041 177.787 142.125 177.86 142.295 177.872C142.481 177.885 142.55 177.952 142.524 178.096C142.498 178.236 142.563 178.307 142.731 178.319C142.866 178.329 142.981 178.397 142.986 178.471C143.011 178.864 143.137 179.117 143.292 179.089C143.388 179.071 143.485 179.157 143.508 179.28C143.531 179.404 143.658 179.518 143.789 179.534C143.939 179.553 144.016 179.634 143.995 179.751C143.972 179.873 144.051 179.945 144.222 179.957C144.412 179.971 144.476 180.039 144.455 180.206C144.434 180.381 144.485 180.426 144.666 180.393C144.869 180.355 144.92 180.42 144.993 180.812C145.055 181.146 145.128 181.267 145.253 181.243C145.326 181.23 145.398 181.276 145.44 181.354L145.5 181.53C145.535 181.596 145.591 181.639 145.651 181.644L145.723 181.64C145.806 181.646 145.883 181.728 145.904 181.841C145.928 181.97 146.025 182.059 146.121 182.041C146.202 182.026 146.271 182.076 146.315 182.179L146.383 182.417C146.427 182.52 146.495 182.571 146.577 182.556C146.698 182.533 146.774 182.646 146.827 182.929C146.879 183.212 146.954 183.325 147.076 183.303C147.201 183.279 147.274 183.399 147.336 183.734C147.399 184.069 147.471 184.188 147.596 184.165C147.704 184.145 147.79 184.242 147.824 184.423C147.859 184.615 147.942 184.7 148.069 184.677C148.236 184.646 148.274 184.76 148.369 185.611C148.523 186.994 148.5 187.356 148.256 187.401C148.116 187.428 148.052 187.566 148.051 187.846C148.051 188.097 147.974 188.289 147.849 188.348C147.701 188.418 147.656 188.604 147.679 189.052C147.705 189.551 147.669 189.669 147.483 189.704C147.321 189.734 147.27 189.826 147.306 190.021C147.334 190.173 147.356 190.467 147.353 190.676C147.349 190.966 147.297 191.048 147.134 191.028C146.953 191.006 146.929 191.11 146.972 191.714C147.035 192.599 146.955 193.161 146.76 193.197C146.666 193.215 146.625 193.467 146.65 193.878C146.684 194.455 146.626 194.595 146.347 194.613C146.307 194.617 146.283 195.019 146.295 195.508C146.312 196.225 146.277 196.406 146.112 196.437C145.94 196.469 145.918 196.655 145.976 197.591C146.055 198.865 146.032 199.09 145.82 199.13C145.657 199.16 145.649 199.274 145.701 200.802C145.726 201.564 145.692 201.792 145.547 201.819C145.393 201.848 145.378 202.213 145.461 203.904C145.517 205.032 145.625 206.805 145.703 207.845C145.829 209.538 145.865 209.744 146.045 209.831C146.212 209.911 146.263 210.095 146.341 210.899C146.421 211.719 146.469 211.886 146.647 211.972C146.834 212.062 146.867 212.208 146.944 213.289C147.022 214.393 147.051 214.516 147.253 214.613C147.462 214.714 147.487 214.886 147.641 217.267C147.854 220.548 147.949 222.518 147.901 222.642C147.88 222.696 147.793 222.753 147.706 222.77C147.611 222.787 147.556 222.996 147.567 223.305C147.603 224.373 147.586 224.471 147.358 224.514C147.216 224.54 147.15 224.635 147.176 224.777C147.239 225.118 147.162 225.389 146.992 225.421C146.829 225.451 146.798 225.605 146.81 226.324C146.816 226.664 146.762 226.783 146.591 226.815C146.439 226.844 146.379 226.936 146.409 227.097C146.442 227.279 146.398 227.329 146.222 227.308C146.035 227.284 145.991 227.357 145.991 227.689C145.99 227.943 145.913 228.136 145.788 228.194C145.67 228.25 145.585 228.445 145.582 228.666C145.579 228.879 145.504 229.057 145.411 229.074C145.306 229.094 145.247 229.287 145.252 229.594C145.259 229.984 145.216 230.08 145.044 230.067C144.863 230.055 144.837 230.158 144.874 230.718C144.94 231.683 144.87 232.293 144.692 232.326C144.588 232.346 144.552 232.584 144.582 233.036C144.608 233.411 144.632 233.893 144.635 234.106C144.639 234.412 144.68 234.487 144.827 234.46C144.966 234.434 145.035 234.539 145.098 234.877C145.153 235.171 145.246 235.339 145.368 235.362C145.47 235.381 145.574 235.503 145.598 235.633C145.622 235.762 145.714 235.854 145.802 235.838C145.89 235.821 146.01 235.908 146.067 236.029C146.124 236.15 146.247 236.235 146.341 236.218C146.435 236.2 146.559 236.285 146.617 236.406C146.683 236.547 146.819 236.609 146.993 236.578C147.494 236.488 147.811 236.566 147.853 236.79C147.882 236.944 147.976 236.993 148.177 236.956C148.744 236.851 149.677 236.935 149.708 237.095C149.743 237.281 149.7 237.281 153.246 237.093C157.188 236.883 156.957 236.883 156.98 237.095C157.001 237.287 159.186 237.198 166.609 236.701C168.041 236.605 169.328 236.53 169.472 236.534C169.656 236.539 169.735 236.471 169.747 236.299C169.757 236.165 169.839 236.065 169.93 236.076C170.022 236.087 170.505 236.053 171.006 236.001C171.781 235.92 171.913 235.879 171.885 235.728C171.861 235.597 171.975 235.526 172.31 235.464C172.613 235.407 172.791 235.307 172.838 235.169C172.888 235.022 173.02 234.956 173.283 234.946C173.544 234.936 173.647 234.885 173.627 234.775C173.611 234.689 173.719 234.544 173.868 234.454C174.016 234.364 174.127 234.236 174.115 234.171C174.103 234.106 174.197 234.032 174.325 234.009C174.475 233.981 174.542 233.889 174.515 233.744C174.451 233.399 174.53 233.132 174.707 233.099C174.893 233.064 174.87 232.758 174.677 232.684C174.606 232.655 174.496 232.355 174.433 232.016C174.351 231.573 174.265 231.387 174.131 231.362C174.029 231.343 173.926 231.222 173.902 231.093C173.877 230.961 173.781 230.872 173.684 230.89C173.588 230.907 173.496 230.847 173.479 230.756C173.466 230.687 173.393 230.62 173.3 230.584L173.105 230.535C173.012 230.5 172.939 230.436 172.927 230.371C172.896 230.203 172.733 230.167 172.037 230.173C171.738 230.175 171.595 230.117 171.581 229.986C171.565 229.834 171.347 229.805 170.49 229.842C169.011 229.905 168.847 229.889 168.884 229.688C168.907 229.566 168.772 229.521 168.415 229.532C167.196 229.571 167.139 229.563 167.101 229.357C167.073 229.21 166.933 229.157 166.59 229.166C166.251 229.175 166.126 229.128 166.149 229.003C166.182 228.819 166.029 228.781 165.286 228.787C164.954 228.79 164.827 228.734 164.796 228.572C164.769 228.428 164.673 228.368 164.515 228.397C164.328 228.432 164.282 228.388 164.306 228.196C164.33 228 164.283 227.96 164.068 227.999C163.74 228.058 163.554 227.984 163.406 227.734C163.344 227.631 163.213 227.56 163.116 227.578C163.016 227.597 162.919 227.511 162.895 227.38C162.871 227.251 162.775 227.163 162.678 227.181C162.583 227.198 162.485 227.111 162.461 226.986C162.43 226.819 162.309 226.759 161.999 226.759C161.696 226.758 161.568 226.697 161.538 226.539C161.512 226.395 161.416 226.335 161.258 226.364C161.118 226.39 161.057 226.373 161.045 226.281L161.053 226.047C161.042 225.955 160.98 225.937 160.84 225.963C160.68 225.993 160.586 225.932 160.558 225.78C160.527 225.613 160.405 225.554 160.092 225.554C159.747 225.553 159.674 225.51 159.698 225.321C159.719 225.146 159.668 225.101 159.487 225.135C159.329 225.164 159.232 225.105 159.205 224.961C159.176 224.803 159.049 224.742 158.745 224.741C158.446 224.741 158.314 224.679 158.286 224.526C158.257 224.374 158.124 224.313 157.822 224.312C157.589 224.312 157.395 224.248 157.39 224.17C157.367 223.781 157.24 223.515 157.091 223.542C157 223.559 156.886 223.458 156.839 223.318C156.774 223.124 156.664 223.073 156.37 223.099C156.086 223.124 155.996 223.179 156.021 223.313C156.042 223.427 155.951 223.514 155.776 223.547C155.554 223.588 155.5 223.549 155.514 223.355C155.526 223.186 155.474 223.123 155.344 223.147C155.103 223.192 155.054 222.923 154.976 221.13C154.927 220.008 154.953 219.697 155.101 219.627C155.237 219.563 155.275 219.356 155.241 218.868C155.148 217.553 155.193 216.833 155.367 216.864C155.476 216.885 155.529 216.762 155.523 216.497C155.518 216.278 155.509 215.779 155.503 215.389C155.498 214.998 155.491 214.668 155.489 214.655C155.488 214.642 155.585 214.585 155.705 214.528C155.874 214.449 155.91 214.32 155.857 213.977C155.741 213.227 155.794 212.806 156.006 212.783C156.147 212.768 156.195 212.628 156.183 212.271C156.149 211.292 156.172 211.142 156.367 211.05C156.52 210.978 156.553 210.784 156.511 210.201C156.426 209.009 156.448 208.787 156.657 208.748C156.809 208.72 156.842 208.484 156.82 207.608C156.797 206.73 156.829 206.504 156.979 206.5C157.131 206.496 157.156 206.274 157.104 205.337C157.012 203.675 157.024 203.496 157.236 203.396C157.384 203.327 157.414 203.085 157.37 202.303C157.309 201.203 157.339 201.02 157.573 201.062C157.685 201.083 157.715 200.799 157.681 200.062C157.617 198.692 157.635 198.491 157.823 198.456C157.992 198.425 158.014 198.235 157.956 197.291C157.9 196.368 157.97 195.79 158.141 195.758C158.239 195.739 158.287 195.52 158.27 195.164C158.218 194.076 158.24 193.94 158.473 193.896C158.644 193.865 158.68 193.773 158.629 193.501C158.526 192.948 158.616 192.07 158.778 192.04C158.941 192.01 158.997 191.631 158.909 191.144C158.866 190.908 158.922 190.777 159.12 190.657C159.297 190.549 159.373 190.403 159.342 190.229C159.258 189.761 159.33 189.442 159.545 189.341C159.69 189.273 159.738 189.138 159.697 188.912C159.596 188.355 159.665 188.037 159.898 187.994C160.05 187.966 160.101 187.87 160.065 187.678C159.956 187.094 160.022 186.651 160.223 186.613C160.386 186.583 160.414 186.386 160.374 185.536C160.31 184.155 160.328 183.955 160.516 183.92C160.709 183.884 160.714 183.747 160.597 181.86C160.482 180.008 160.454 179.854 160.235 179.895C160.1 179.92 160.053 179.825 160.033 179.482C159.939 177.889 159.895 177.679 159.664 177.722C159.473 177.757 159.439 177.698 159.418 177.287C159.398 176.892 159.36 176.819 159.194 176.85C159.024 176.881 158.982 176.789 158.915 176.241C158.858 175.774 158.795 175.604 158.688 175.624C158.606 175.639 158.492 175.566 158.435 175.461C158.377 175.356 158.227 175.119 158.1 174.935C157.973 174.75 157.887 174.509 157.907 174.4C157.931 174.271 157.879 174.215 157.756 174.238C157.617 174.264 157.549 174.158 157.487 173.821C157.432 173.527 157.338 173.358 157.216 173.335C157.099 173.313 157.001 173.149 156.954 172.892C156.9 172.605 156.825 172.492 156.704 172.515C156.578 172.538 156.505 172.418 156.443 172.083C156.38 171.748 156.309 171.629 156.183 171.652C156.086 171.67 155.99 171.581 155.965 171.449C155.941 171.32 155.837 171.198 155.735 171.179C155.62 171.157 155.521 170.993 155.476 170.751C155.416 170.431 155.358 170.366 155.162 170.402C155.022 170.428 154.961 170.41 154.95 170.318L154.957 170.084C154.946 169.993 154.884 169.974 154.745 170C154.613 170.024 154.5 170.019 154.494 169.987C154.488 169.956 154.473 169.459 154.459 168.884C154.446 168.309 154.4 167.508 154.357 167.104C154.289 166.475 154.249 166.374 154.085 166.404C153.926 166.434 153.881 166.334 153.815 165.796C153.753 165.29 153.694 165.143 153.538 165.114C153.413 165.091 153.315 164.939 153.27 164.697C153.225 164.454 153.126 164.303 152.998 164.279C152.853 164.252 152.791 164.13 152.771 163.829C152.747 163.484 152.706 163.423 152.521 163.457C152.352 163.488 152.303 163.436 152.317 163.241C152.33 163.054 152.27 162.981 152.089 162.968C151.887 162.953 151.838 162.874 151.815 162.535C151.795 162.244 151.753 162.142 151.617 162.112L151.488 162.095C151.353 162.066 151.316 161.972 151.31 161.697C151.303 161.38 151.256 161.305 151.06 161.291C150.858 161.276 150.819 161.207 150.82 160.86C150.82 160.505 150.784 160.445 150.556 160.429C150.354 160.414 150.299 160.35 150.323 160.156C150.345 159.973 150.303 159.911 150.172 159.936C150.038 159.96 149.969 159.849 149.905 159.506C149.842 159.171 149.77 159.051 149.644 159.074C149.522 159.097 149.447 158.984 149.394 158.697C149.346 158.44 149.248 158.275 149.131 158.254C149.045 158.238 148.968 158.141 148.915 157.99L148.828 157.654C148.784 157.528 148.723 157.44 148.654 157.405L148.57 157.376C148.474 157.328 148.392 157.178 148.354 156.976C148.311 156.744 148.21 156.581 148.097 156.56C147.995 156.541 147.891 156.42 147.867 156.29C147.842 156.158 147.746 156.069 147.649 156.087C147.527 156.109 147.452 155.996 147.399 155.71C147.351 155.453 147.253 155.288 147.136 155.267C147.034 155.248 146.932 155.133 146.91 155.013C146.887 154.892 146.79 154.808 146.695 154.825C146.587 154.845 146.5 154.748 146.466 154.567C146.433 154.387 146.347 154.29 146.239 154.311C146.118 154.333 146.042 154.221 145.992 153.95C145.938 153.66 145.858 153.554 145.684 153.541C145.514 153.529 145.454 153.453 145.467 153.268C145.48 153.085 145.431 153.021 145.298 153.046C145.194 153.065 145.084 152.979 145.05 152.853C145.017 152.727 144.972 152.559 144.951 152.48C144.929 152.402 144.814 152.317 144.694 152.292C144.574 152.267 144.455 152.141 144.431 152.012C144.406 151.88 144.312 151.791 144.214 151.809C144.117 151.827 144.021 151.737 143.996 151.605C143.972 151.476 143.868 151.354 143.764 151.335C143.66 151.316 143.572 151.239 143.567 151.165C143.541 150.771 143.415 150.517 143.259 150.546C143.164 150.564 143.067 150.48 143.044 150.359C143.022 150.239 142.92 150.125 142.818 150.105C142.701 150.084 142.603 149.918 142.555 149.661C142.502 149.375 142.427 149.262 142.305 149.284C142.178 149.308 142.106 149.186 142.041 148.837L141.953 148.357L142.66 148.291C143.312 148.23 143.364 148.206 143.324 147.99C143.291 147.813 143.339 147.76 143.523 147.773C143.703 147.786 143.755 147.733 143.725 147.569C143.699 147.43 143.765 147.333 143.904 147.308C144.024 147.285 144.139 147.183 144.158 147.081C144.176 146.979 144.274 146.879 144.375 146.86C144.476 146.841 144.585 146.659 144.616 146.456C144.647 146.252 144.75 146.07 144.845 146.053C144.94 146.035 145.026 145.911 145.036 145.777C145.045 145.644 145.131 145.52 145.225 145.503C145.319 145.485 145.404 145.361 145.413 145.228C145.423 145.093 145.529 144.966 145.65 144.943C145.769 144.921 145.853 144.825 145.835 144.729C145.817 144.633 145.906 144.536 146.035 144.512C146.163 144.488 146.253 144.391 146.235 144.295C146.217 144.199 146.301 144.102 146.421 144.08C146.579 144.05 146.64 143.924 146.64 143.62C146.64 143.31 146.7 143.188 146.868 143.157C146.977 143.137 147.057 143.06 147.064 142.978L147.06 142.905C147.067 142.822 147.149 142.746 147.261 142.725C147.416 142.696 147.479 142.604 147.451 142.449C147.422 142.297 147.485 142.204 147.634 142.176C147.801 142.145 147.86 142.022 147.861 141.713C147.861 141.457 147.91 141.319 148.018 141.271L148.118 141.239C148.226 141.191 148.273 141.053 148.274 140.797C148.274 140.487 148.334 140.366 148.501 140.335C148.647 140.308 148.713 140.213 148.687 140.071C148.657 139.913 148.71 139.855 148.873 139.867C149.055 139.88 149.102 139.797 149.102 139.453C149.102 139.134 149.161 139.013 149.329 138.981C149.483 138.953 149.541 138.86 149.51 138.693C149.475 138.505 149.521 138.452 149.707 138.466C149.888 138.479 149.94 138.426 149.91 138.262C149.884 138.121 149.95 138.026 150.091 138C150.244 137.972 150.318 137.845 150.326 137.596C150.332 137.388 150.412 137.22 150.513 137.201C150.609 137.183 150.696 137.059 150.705 136.926C150.715 136.791 150.821 136.664 150.942 136.642C151.062 136.619 151.145 136.523 151.127 136.428C151.109 136.331 151.199 136.234 151.328 136.21C151.458 136.185 151.544 136.089 151.526 135.989C151.508 135.892 151.578 135.762 151.682 135.7C151.786 135.638 151.9 135.51 151.935 135.416C151.97 135.322 152.072 135.232 152.16 135.216C152.248 135.199 152.334 135.073 152.351 134.936C152.373 134.756 152.449 134.693 152.618 134.714C152.798 134.736 152.843 134.687 152.809 134.503C152.779 134.341 152.839 134.25 152.996 134.221C153.125 134.197 153.214 134.099 153.196 134.003C153.178 133.907 153.262 133.811 153.381 133.789C153.502 133.767 153.608 133.64 153.618 133.505C153.628 133.36 153.705 133.274 153.807 133.293C153.919 133.313 154.003 133.171 154.051 132.879C154.098 132.591 154.184 132.445 154.293 132.465C154.389 132.482 154.475 132.393 154.492 132.257C154.508 132.125 154.622 131.999 154.745 131.976C154.869 131.953 154.955 131.855 154.937 131.76C154.919 131.664 154.988 131.571 155.089 131.552C155.191 131.533 155.282 131.408 155.291 131.274C155.301 131.14 155.407 131.013 155.528 130.99C155.648 130.968 155.731 130.872 155.713 130.776C155.695 130.681 155.78 130.584 155.9 130.562C156.021 130.539 156.125 130.412 156.135 130.277C156.145 130.144 156.236 130.019 156.337 130C156.439 129.981 156.508 129.888 156.491 129.792C156.473 129.696 156.559 129.599 156.682 129.576C156.805 129.553 156.92 129.423 156.937 129.286C156.955 129.143 157.053 129.036 157.167 129.033C157.308 129.03 157.36 128.93 157.344 128.697C157.329 128.475 157.408 128.313 157.583 128.206C157.727 128.118 157.829 127.961 157.81 127.857C157.787 127.732 157.841 127.68 157.972 127.704C158.104 127.728 158.176 127.66 158.188 127.497C158.198 127.363 158.297 127.237 158.409 127.216C158.542 127.191 158.614 127.054 158.618 126.817C158.62 126.615 158.696 126.442 158.791 126.425C158.884 126.408 158.974 126.283 158.991 126.147C159.007 126.012 159.122 125.883 159.245 125.86C159.374 125.836 159.438 125.761 159.433 125.642L159.419 125.532C159.414 125.411 159.479 125.337 159.615 125.312C159.743 125.288 159.833 125.191 159.815 125.095C159.797 124.999 159.885 124.902 160.009 124.879C160.176 124.848 160.235 124.726 160.236 124.413C160.236 124.068 160.28 123.994 160.468 124.018C160.643 124.039 160.689 123.989 160.655 123.807C160.626 123.649 160.685 123.553 160.829 123.526C160.953 123.503 161.054 123.376 161.065 123.228C161.077 123.059 161.149 122.98 161.271 123.003C161.388 123.025 161.469 122.948 161.488 122.798C161.504 122.666 161.595 122.545 161.688 122.527C161.781 122.51 161.873 122.412 161.892 122.31C161.911 122.207 162.025 122.104 162.146 122.082C162.251 122.062 162.328 121.986 162.334 121.903L162.33 121.831C162.337 121.748 162.419 121.671 162.532 121.65C162.686 121.622 162.75 121.53 162.721 121.375C162.692 121.221 162.755 121.129 162.91 121.101C163.037 121.077 163.131 121.004 163.12 120.938C163.11 120.889 163.171 120.806 163.264 120.729L163.469 120.582C163.562 120.505 163.623 120.421 163.614 120.372C163.602 120.307 163.696 120.235 163.824 120.211C163.952 120.187 164.041 120.09 164.023 119.993C164.005 119.898 164.089 119.802 164.209 119.779C164.33 119.757 164.435 119.629 164.445 119.494C164.456 119.339 164.53 119.263 164.649 119.285C164.767 119.307 164.848 119.227 164.868 119.065C164.885 118.924 164.998 118.793 165.122 118.77C165.23 118.75 165.31 118.673 165.317 118.59L165.313 118.518C165.32 118.434 165.401 118.358 165.514 118.337C165.643 118.313 165.731 118.216 165.713 118.119C165.691 117.997 165.805 117.923 166.098 117.868C166.417 117.809 166.518 117.733 166.532 117.547C166.542 117.412 166.647 117.286 166.768 117.264C166.873 117.244 166.95 117.168 166.955 117.085L166.952 117.013C166.958 116.929 167.04 116.853 167.153 116.832C167.265 116.811 167.348 116.735 167.355 116.651L167.351 116.579C167.357 116.496 167.434 116.42 167.538 116.4C167.659 116.378 167.765 116.251 167.775 116.116C167.786 115.954 167.858 115.885 167.99 115.909C168.121 115.933 168.176 115.881 168.153 115.756C168.134 115.652 168.239 115.494 168.387 115.403C168.535 115.313 168.646 115.185 168.634 115.12C168.622 115.055 168.71 114.983 168.83 114.961C168.951 114.938 169.056 114.811 169.066 114.677C169.077 114.524 169.152 114.446 169.266 114.467C169.398 114.491 169.449 114.382 169.45 114.075C169.45 113.684 169.481 113.646 169.828 113.609C170.181 113.572 170.213 113.6 170.331 114.054C170.421 114.397 170.51 114.528 170.636 114.505C170.779 114.478 170.83 114.597 170.894 115.116C170.963 115.684 170.999 115.757 171.191 115.721C171.378 115.686 171.412 115.747 171.433 116.155C171.454 116.567 171.487 116.626 171.679 116.59C171.873 116.554 171.903 116.608 171.913 117.025C171.924 117.448 171.952 117.498 172.157 117.46C172.34 117.426 172.386 117.479 172.385 117.718C172.384 117.938 172.434 118.008 172.572 117.982C172.709 117.957 172.78 118.058 172.835 118.357C172.883 118.614 172.98 118.779 173.097 118.801C173.21 118.822 173.311 118.985 173.354 119.216C173.408 119.506 173.486 119.6 173.684 119.614C173.848 119.626 173.931 119.699 173.91 119.814C173.889 119.926 173.966 120.002 174.111 120.013C174.27 120.024 174.335 120.095 174.309 120.234C174.284 120.372 174.346 120.445 174.499 120.456C174.654 120.467 174.759 120.591 174.824 120.839C174.876 121.04 175.009 121.247 175.12 121.3C175.23 121.353 175.335 121.481 175.355 121.586C175.374 121.69 175.468 121.762 175.564 121.744C175.66 121.726 175.758 121.815 175.782 121.943C175.803 122.056 175.879 122.139 175.962 122.146L176.035 122.142C176.117 122.148 176.194 122.224 176.213 122.329C176.237 122.454 176.364 122.556 176.512 122.566C176.685 122.579 176.76 122.649 176.736 122.778C176.711 122.913 176.769 122.959 176.928 122.93C177.076 122.902 177.171 122.966 177.198 123.111C177.221 123.235 177.344 123.348 177.471 123.364C177.598 123.38 177.712 123.481 177.723 123.588C177.736 123.713 177.886 123.797 178.14 123.823C178.404 123.85 178.551 123.937 178.578 124.08C178.604 124.221 178.701 124.279 178.862 124.249C179.037 124.216 179.096 124.259 179.07 124.401C179.045 124.533 179.114 124.606 179.277 124.617C179.412 124.627 179.538 124.732 179.561 124.853C179.58 124.957 179.657 125.035 179.74 125.041L179.812 125.037C179.895 125.044 179.972 125.126 179.993 125.238C180.017 125.367 180.114 125.455 180.21 125.438C180.306 125.42 180.402 125.507 180.425 125.63C180.449 125.755 180.58 125.867 180.722 125.885C180.875 125.904 180.963 125.987 180.944 126.092C180.925 126.194 180.983 126.253 181.084 126.234C181.156 126.221 181.259 126.278 181.344 126.37L181.5 126.573C181.587 126.665 181.695 126.721 181.771 126.707C181.903 126.683 181.947 126.743 181.925 126.918C181.901 127.11 181.947 127.154 182.134 127.119C182.293 127.09 182.388 127.149 182.415 127.297C182.444 127.45 182.57 127.523 182.819 127.531C183.166 127.542 183.282 127.697 183.31 128.185C183.315 128.264 183.498 128.341 183.717 128.356C183.994 128.375 184.143 128.459 184.202 128.631C184.248 128.767 184.36 128.864 184.452 128.847C184.543 128.83 184.637 128.92 184.661 129.048C184.689 129.202 184.781 129.265 184.935 129.236C185.089 129.208 185.182 129.271 185.21 129.426C185.231 129.538 185.308 129.62 185.391 129.627L185.463 129.623C185.547 129.63 185.623 129.712 185.644 129.824C185.674 129.987 185.766 130.043 185.949 130.01C186.269 129.952 186.455 130.028 186.603 130.275C186.665 130.379 186.835 130.443 186.981 130.417C187.44 130.334 187.767 130.404 187.862 130.604C187.993 130.882 189.53 130.763 189.63 130.468C189.667 130.359 189.794 130.251 189.912 130.229C190.029 130.208 190.139 130.109 190.158 130.012C190.176 129.914 190.36 129.786 190.567 129.727C190.886 129.635 190.941 129.566 190.92 129.278C190.906 129.071 190.975 128.903 191.098 128.845C191.209 128.792 191.307 128.645 191.317 128.518C191.327 128.371 191.403 128.298 191.52 128.319C191.64 128.341 191.719 128.259 191.74 128.088C191.763 127.903 191.842 127.827 192.003 127.839C192.171 127.851 192.224 127.795 192.194 127.635C192.168 127.495 192.234 127.399 192.372 127.373C192.493 127.351 192.607 127.248 192.626 127.146C192.648 127.03 192.812 126.932 193.058 126.886C193.304 126.84 193.467 126.74 193.489 126.625C193.508 126.523 193.601 126.425 193.696 126.407C193.802 126.388 193.868 126.209 193.869 125.945C193.869 125.602 193.915 125.518 194.097 125.531C194.261 125.543 194.313 125.485 194.284 125.326C194.258 125.187 194.323 125.091 194.46 125.065C194.581 125.043 194.687 124.916 194.697 124.781C194.706 124.648 194.784 124.525 194.87 124.509C194.957 124.493 195.067 124.311 195.117 124.104C195.166 123.897 195.279 123.713 195.37 123.696C195.46 123.679 195.514 123.561 195.491 123.434C195.462 123.279 195.525 123.188 195.679 123.159C195.808 123.135 195.897 123.038 195.879 122.941C195.859 122.833 195.956 122.747 196.136 122.714C196.305 122.682 196.414 122.594 196.397 122.5C196.38 122.412 196.466 122.292 196.587 122.235C196.749 122.159 196.789 122.034 196.739 121.763C196.689 121.495 196.729 121.365 196.884 121.292C197.002 121.237 197.122 121.031 197.152 120.834C197.182 120.637 197.288 120.461 197.387 120.442C197.49 120.423 197.548 120.309 197.524 120.177C197.495 120.024 197.558 119.93 197.707 119.902C197.875 119.871 197.933 119.749 197.934 119.431C197.934 119.087 197.981 119.004 198.162 119.017C198.326 119.028 198.379 118.971 198.349 118.812C198.322 118.669 198.389 118.576 198.539 118.548C198.674 118.523 198.758 118.428 198.738 118.32C198.719 118.219 198.801 118.09 198.921 118.033C199.063 117.966 199.139 117.788 199.139 117.521C199.14 117.196 199.186 117.115 199.36 117.137C199.538 117.159 199.578 117.074 199.572 116.688C199.566 116.347 199.613 116.223 199.739 116.246C199.918 116.279 199.947 116.201 199.966 115.604C199.973 115.391 200.039 115.272 200.138 115.29C200.236 115.308 200.325 115.155 200.368 114.898C200.401 114.696 200.482 114.515 200.56 114.462L200.626 114.433C200.699 114.377 200.746 114.186 200.742 113.94C200.736 113.582 200.788 113.452 200.95 113.422C201.104 113.393 201.166 113.264 201.166 112.97C201.167 112.694 201.222 112.569 201.333 112.589C201.447 112.61 201.501 112.476 201.501 112.174C201.502 111.888 201.574 111.694 201.704 111.633C201.83 111.574 201.908 111.383 201.909 111.131C201.909 110.847 201.972 110.713 202.119 110.686C202.256 110.66 202.332 110.525 202.339 110.297C202.346 110.093 202.44 109.904 202.565 109.846C202.683 109.79 202.764 109.662 202.745 109.561C202.725 109.453 202.808 109.357 202.943 109.332C203.105 109.302 203.16 109.211 203.127 109.028C203.07 108.708 203.146 108.522 203.394 108.374C203.498 108.312 203.568 108.182 203.55 108.084C203.532 107.984 203.618 107.888 203.748 107.863C203.9 107.835 203.966 107.743 203.939 107.598C203.872 107.239 203.955 106.996 204.132 107.028C204.226 107.045 204.311 106.948 204.329 106.804C204.346 106.662 204.46 106.531 204.584 106.508C204.692 106.488 204.771 106.411 204.778 106.328L204.774 106.256C204.781 106.173 204.863 106.096 204.975 106.075C205.134 106.046 205.193 105.955 205.162 105.787C205.126 105.599 205.172 105.545 205.359 105.559C205.539 105.572 205.591 105.519 205.561 105.355C205.535 105.218 205.601 105.12 205.735 105.095C205.877 105.068 205.964 104.921 205.991 104.657C206.017 104.4 206.098 104.259 206.219 104.257C206.323 104.255 206.414 104.145 206.424 104.009C206.435 103.861 206.539 103.745 206.685 103.718C206.823 103.692 206.913 103.598 206.895 103.499C206.877 103.403 206.966 103.306 207.094 103.282C207.247 103.254 207.312 103.162 207.284 103.011C207.254 102.852 207.3 102.794 207.435 102.818C207.564 102.842 207.635 102.768 207.648 102.595C207.659 102.446 207.759 102.318 207.884 102.295C208.028 102.268 208.087 102.172 208.058 102.015C208.024 101.833 208.069 101.782 208.245 101.804C208.433 101.827 208.477 101.754 208.477 101.409C208.477 101.144 208.524 101.009 208.638 100.961L208.744 100.93C208.858 100.881 208.905 100.748 208.906 100.486C208.906 100.242 208.975 100.054 209.07 100.036C209.165 100.018 209.233 99.8287 209.234 99.585C209.234 99.2906 209.296 99.1542 209.442 99.127C209.604 99.0967 209.644 98.9541 209.621 98.4785C209.601 98.0372 209.647 97.844 209.79 97.7764C209.911 97.7196 209.988 97.5238 209.989 97.2744C209.989 96.9749 210.05 96.8541 210.216 96.8232C210.377 96.7932 210.428 96.7018 210.392 96.5059C210.283 95.9195 210.349 95.4792 210.552 95.4414C210.713 95.4113 210.749 95.2228 210.732 94.5C210.716 93.8352 210.754 93.6028 210.875 93.625C211.063 93.6597 211.135 93.4116 211.058 92.998C211.026 92.8264 210.939 92.7303 210.832 92.75C210.736 92.768 210.64 92.6796 210.616 92.5508C210.587 92.3955 210.495 92.3333 210.338 92.3623C210.157 92.396 210.105 92.3452 210.109 92.1357C210.112 91.9868 210.109 91.6633 210.103 91.417C210.095 91.0927 210.149 90.9587 210.3 90.9307C210.476 90.8978 210.497 90.7179 210.439 89.7715C210.401 89.1566 210.36 88.6033 210.349 88.541C210.338 88.4798 210.161 88.4041 209.957 88.373C209.587 88.3163 209.38 87.9827 209.68 87.9268C209.838 87.8969 209.895 87.3925 209.799 86.877C209.756 86.6472 209.67 86.6123 209.197 86.6289C208.741 86.645 208.632 86.6871 208.57 86.8711C208.504 87.0644 208.38 87.1044 207.638 87.1719C206.92 87.2371 206.777 87.2805 206.746 87.4443C206.723 87.5703 206.567 87.6663 206.306 87.7148C205.935 87.784 205.901 87.8253 205.901 88.2178C205.9 88.5167 205.848 88.6347 205.726 88.6123C205.607 88.5904 205.55 88.6989 205.546 88.9541C205.543 89.1755 205.458 89.368 205.337 89.4248C205.225 89.4776 205.147 89.5906 205.162 89.6758C205.22 89.9875 205.035 90.4512 204.866 90.4199C204.754 90.3996 204.711 90.4733 204.741 90.6328C204.77 90.7925 204.712 90.89 204.573 90.916C204.408 90.9466 204.353 91.1106 204.334 91.6289C204.317 92.1125 204.263 92.2928 204.14 92.2705C204.023 92.2489 203.969 92.3696 203.968 92.6533C203.968 93.0272 203.888 93.1401 203.62 93.1475C203.57 93.1488 203.55 93.255 203.574 93.3838C203.615 93.606 203.566 93.6245 202.648 93.7266C202.115 93.7858 201.612 93.8264 201.531 93.8174C201.45 93.8085 201.37 93.9128 201.353 94.0488C201.333 94.2054 201.254 94.2844 201.136 94.2627C201.017 94.2407 200.943 94.3172 200.932 94.4727C200.919 94.6575 200.816 94.7338 200.509 94.791C200.238 94.8415 200.15 94.89 200.182 94.9834L200.235 95.0889C200.257 95.1469 200.251 95.1891 200.216 95.1904C199.887 95.2023 199.62 95.3433 199.647 95.4912C199.665 95.5869 199.581 95.6836 199.46 95.7061C199.303 95.7353 199.241 95.8619 199.241 96.1533C199.24 96.4077 199.163 96.5967 199.035 96.6572C198.874 96.733 198.841 96.915 198.88 97.4932C198.919 98.0589 198.884 98.2553 198.734 98.3262C198.511 98.4311 198.514 98.8637 198.754 102.315C198.834 103.455 198.906 104.709 198.915 105.104C198.925 105.497 198.939 105.858 198.948 105.907C198.956 105.955 198.864 106.013 198.744 106.035C198.585 106.065 198.524 106.192 198.524 106.496C198.523 106.806 198.464 106.927 198.297 106.958C198.145 106.986 198.085 107.08 198.115 107.24C198.149 107.427 198.106 107.473 197.914 107.449C197.714 107.424 197.678 107.472 197.722 107.707C197.79 108.073 197.745 108.311 197.609 108.343H197.506C197.423 108.363 197.372 108.511 197.358 108.774C197.341 109.093 197.274 109.237 197.144 109.239C197.013 109.242 196.956 109.372 196.955 109.665C196.955 109.977 196.895 110.098 196.728 110.129C196.579 110.157 196.516 110.251 196.544 110.403C196.573 110.556 196.51 110.649 196.361 110.677C196.195 110.708 196.135 110.829 196.134 111.131C196.134 111.426 196.082 111.533 195.952 111.509C195.836 111.488 195.763 111.57 195.751 111.734C195.741 111.883 195.639 112.011 195.514 112.034C195.394 112.057 195.311 112.153 195.329 112.249C195.346 112.344 195.263 112.44 195.143 112.463C195.022 112.485 194.916 112.612 194.907 112.747C194.896 112.892 194.792 113.008 194.647 113.035C194.508 113.061 194.417 113.156 194.436 113.255C194.458 113.375 194.347 113.451 194.075 113.502C193.832 113.547 193.668 113.646 193.647 113.761C193.628 113.863 193.507 113.967 193.377 113.991C193.245 114.016 193.156 114.111 193.174 114.209C193.197 114.331 193.084 114.406 192.797 114.459C192.54 114.507 192.375 114.605 192.354 114.722C192.335 114.824 192.22 114.926 192.1 114.948C191.979 114.971 191.895 115.068 191.912 115.163C191.93 115.26 191.842 115.357 191.713 115.381C191.601 115.402 191.518 115.478 191.511 115.562L191.515 115.634C191.508 115.717 191.429 115.793 191.322 115.813C191.198 115.836 191.084 115.966 191.067 116.101C191.05 116.236 190.936 116.365 190.813 116.388C190.69 116.411 190.604 116.508 190.621 116.604C190.639 116.7 190.55 116.796 190.421 116.82C190.271 116.848 190.204 116.941 190.231 117.084C190.261 117.248 190.209 117.301 190.029 117.288C189.842 117.275 189.796 117.328 189.831 117.516C189.863 117.684 189.804 117.775 189.645 117.805C189.532 117.826 189.45 117.902 189.444 117.985L189.448 118.058C189.442 118.14 189.366 118.216 189.263 118.235C189.12 118.262 189.034 118.409 189.007 118.673C188.98 118.937 188.901 119.071 188.773 119.073C188.65 119.075 188.584 119.174 188.591 119.347C188.598 119.512 188.527 119.627 188.408 119.64C188.274 119.654 188.212 119.789 188.211 120.065C188.211 120.361 188.15 120.482 187.985 120.513C187.852 120.537 187.743 120.476 187.722 120.364C187.702 120.26 187.589 120.128 187.469 120.07C187.23 119.955 187.271 119.686 187.535 119.637C187.776 119.591 187.681 119.287 187.42 119.269C187.245 119.256 187.194 119.164 187.17 118.821C187.147 118.483 187.101 118.398 186.954 118.425C186.814 118.451 186.747 118.345 186.682 117.996C186.62 117.661 186.547 117.541 186.421 117.564C186.326 117.582 186.229 117.496 186.206 117.373C186.184 117.25 186.06 117.136 185.932 117.12C185.773 117.1 185.704 117.015 185.715 116.853C185.727 116.688 185.674 116.624 185.545 116.648C185.375 116.68 185.25 116.439 185.225 116.027C185.22 115.951 185.099 115.873 184.956 115.855C184.776 115.833 184.702 115.752 184.713 115.592C184.725 115.424 184.668 115.372 184.508 115.401C184.365 115.428 184.273 115.362 184.245 115.211C184.224 115.098 184.147 115.017 184.064 115.01L183.992 115.014C183.909 115.008 183.833 114.93 183.813 114.824C183.79 114.704 183.688 114.589 183.585 114.57C183.469 114.549 183.37 114.384 183.323 114.127C183.269 113.84 183.194 113.727 183.073 113.75C182.977 113.768 182.88 113.681 182.857 113.558C182.834 113.434 182.71 113.321 182.582 113.305C182.424 113.285 182.355 113.2 182.367 113.037C182.379 112.872 182.326 112.809 182.197 112.833C182.089 112.853 181.991 112.773 181.967 112.644C181.944 112.521 181.822 112.408 181.695 112.392C181.568 112.376 181.454 112.298 181.442 112.22C181.373 111.767 181.267 111.567 181.113 111.596C181.017 111.613 180.92 111.529 180.898 111.409C180.875 111.288 180.749 111.184 180.614 111.174C180.451 111.162 180.382 111.09 180.407 110.958C180.431 110.827 180.379 110.773 180.254 110.796C180.15 110.815 179.991 110.71 179.901 110.562C179.81 110.413 179.683 110.302 179.618 110.314C179.552 110.326 179.479 110.232 179.455 110.104C179.431 109.976 179.335 109.887 179.239 109.905C179.113 109.929 179.041 109.808 178.979 109.474C178.919 109.152 178.842 109.019 178.729 109.04C178.568 109.07 178.45 108.464 178.432 107.506C178.427 107.271 178.376 107.186 178.254 107.209C178.119 107.234 178.049 107.061 177.921 106.372C177.792 105.676 177.724 105.508 177.585 105.534C177.476 105.554 177.392 105.456 177.357 105.271C177.326 105.107 177.261 105.011 177.211 105.056C177.108 105.149 176.822 104.507 176.89 104.332C176.915 104.268 176.821 104.237 176.683 104.263C176.492 104.298 176.434 104.254 176.447 104.077C176.458 103.92 176.39 103.839 176.235 103.828C176.064 103.816 175.986 103.706 175.928 103.396C175.874 103.103 175.799 102.988 175.677 103.011C175.581 103.029 175.483 102.94 175.459 102.812C175.435 102.683 175.339 102.594 175.243 102.612C175.147 102.63 175.05 102.543 175.027 102.42C175.004 102.297 174.875 102.183 174.74 102.166C174.605 102.149 174.475 102.034 174.453 101.911C174.43 101.788 174.332 101.702 174.237 101.72C174.141 101.737 174.044 101.653 174.022 101.533C173.992 101.375 173.866 101.314 173.562 101.313C173.252 101.313 173.13 101.253 173.099 101.086C173.076 100.961 172.979 100.874 172.883 100.892C172.788 100.909 172.692 100.826 172.669 100.706C172.647 100.585 172.519 100.48 172.384 100.47C172.237 100.459 172.154 100.383 172.173 100.277C172.195 100.156 172.065 100.094 171.746 100.074C171.41 100.053 171.286 99.9899 171.284 99.8379C171.281 99.6975 171.204 99.6451 171.043 99.6748C170.884 99.7045 170.792 99.6434 170.763 99.4873C170.739 99.3585 170.642 99.2691 170.545 99.2871C170.45 99.3047 170.354 99.2214 170.331 99.1016C170.309 98.9815 170.184 98.8756 170.055 98.8662C169.885 98.854 169.825 98.778 169.838 98.5928C169.851 98.4098 169.803 98.3462 169.669 98.3711C169.559 98.3915 169.464 98.31 169.439 98.1738C169.41 98.0195 169.318 97.9566 169.163 97.9854C169.009 98.0139 168.918 97.9511 168.889 97.7969C168.865 97.6683 168.769 97.5791 168.672 97.5967C168.577 97.6145 168.513 97.7081 168.531 97.8037C168.548 97.8992 168.465 97.9956 168.347 98.0176C168.204 98.0445 168.119 98.19 168.094 98.4531C168.053 98.8889 167.868 99.0088 167.243 99.0078C166.859 99.0072 166.83 98.9794 166.748 98.541C166.672 98.1277 166.69 98.0785 166.908 98.1055C167.099 98.1291 167.142 98.0831 167.108 97.8965C167.078 97.7342 167.138 97.6425 167.295 97.6133C167.424 97.5893 167.512 97.493 167.495 97.3965C167.476 97.2972 167.567 97.2025 167.705 97.1768C167.845 97.1506 167.955 97.0355 167.964 96.9033C167.975 96.7483 168.056 96.6792 168.213 96.6904C168.371 96.7017 168.435 96.6477 168.412 96.5205C168.391 96.4086 168.48 96.3061 168.634 96.2666C168.776 96.2302 168.968 96.1803 169.062 96.1562C169.155 96.1322 169.233 96.0132 169.234 95.8916C169.235 95.7411 169.309 95.6761 169.467 95.6875C169.639 95.6997 169.687 95.6434 169.655 95.4688C169.614 95.2514 169.66 95.2299 170.228 95.2002C170.942 95.163 171.042 95.1883 171.084 95.416C171.101 95.5078 171.194 95.5684 171.289 95.5508C171.385 95.533 171.483 95.6205 171.506 95.7451C171.537 95.9121 171.659 95.9713 171.968 95.9717C172.26 95.9721 172.399 96.035 172.426 96.1777C172.447 96.2906 172.581 96.3919 172.723 96.4023C172.889 96.4143 172.97 96.4867 172.949 96.6045C172.922 96.7488 173.086 96.783 173.711 96.7627C175.346 96.7095 175.492 96.6826 175.51 96.4316C175.52 96.2984 175.629 96.1826 175.769 96.1562C175.907 96.1305 175.998 96.0367 175.98 95.9375C175.962 95.841 176.05 95.7448 176.179 95.7207C176.308 95.6967 176.397 95.5995 176.379 95.5029C176.362 95.4073 176.445 95.3105 176.566 95.2881C176.723 95.2587 176.784 95.1324 176.785 94.8408C176.785 94.5764 176.862 94.3988 177.003 94.332C177.133 94.2708 177.189 94.1625 177.174 93.9941L177.153 93.8418C177.138 93.674 177.193 93.5649 177.321 93.5049C177.478 93.4309 177.539 93.2304 177.549 92.7607C177.559 92.2689 177.606 92.1253 177.748 92.1514C177.869 92.1736 177.941 92.0947 177.954 91.9268C177.964 91.7783 178.066 91.6512 178.191 91.6279C178.332 91.6017 178.393 91.505 178.366 91.3555C178.337 91.2011 178.4 91.1089 178.554 91.0801C178.667 91.0591 178.749 90.9828 178.756 90.8994L178.752 90.8271C178.758 90.7443 178.835 90.668 178.94 90.6484C179.061 90.6259 179.166 90.4992 179.176 90.3643C179.187 90.2122 179.262 90.1335 179.375 90.1543C179.491 90.1754 179.563 90.0908 179.576 89.9209C179.59 89.7242 179.66 89.6596 179.845 89.6729C180.01 89.6847 180.085 89.6358 180.065 89.5283C180.042 89.4064 180.21 89.3322 180.73 89.2354C181.291 89.1308 181.419 89.0703 181.391 88.9199C181.37 88.8059 181.426 88.7465 181.535 88.7666C181.725 88.8018 181.745 88.632 181.677 87.5303C181.645 87.0078 181.609 86.9127 181.454 86.9414C181.233 86.9827 181.175 86.7288 181.086 85.3281C180.979 83.6225 181.011 82.9567 181.197 82.9912C181.376 83.024 181.399 82.8467 181.34 81.8652C181.285 80.9394 181.316 80.7571 181.542 80.6504C181.663 80.5933 181.735 80.4502 181.709 80.3145C181.618 79.8248 181.703 78.8599 181.84 78.833C181.918 78.8184 182.002 78.5332 182.024 78.1992C182.062 77.6253 182.085 77.5886 182.446 77.5215C182.73 77.4686 182.832 77.3876 182.845 77.2061C182.856 77.0536 182.931 76.9749 183.045 76.9961C183.166 77.0182 183.233 76.9293 183.245 76.7324C183.257 76.5501 183.343 76.4279 183.467 76.415C183.624 76.3989 183.667 76.2537 183.657 75.7812C183.647 75.3142 183.691 75.1628 183.843 75.1465C184.011 75.1281 184.028 74.8966 183.952 73.6426C183.864 72.2006 183.854 72.1582 183.621 72.1123C183.43 72.0744 183.38 71.9854 183.372 71.6611C183.365 71.3307 183.32 71.253 183.129 71.2393C182.993 71.2292 182.877 71.1213 182.851 70.9795C182.828 70.8582 182.753 70.7742 182.668 70.7676L182.596 70.7715C182.512 70.765 182.435 70.6822 182.414 70.5693C182.393 70.4569 182.317 70.3749 182.234 70.3682L182.162 70.3721C182.079 70.3661 182.002 70.2893 181.983 70.1846C181.96 70.0635 181.834 69.958 181.699 69.9482C181.536 69.9366 181.467 69.865 181.492 69.7334C181.518 69.5909 181.459 69.5483 181.284 69.5811C181.117 69.6119 181.026 69.5527 180.996 69.3945C180.973 69.2659 180.876 69.1766 180.78 69.1943C180.68 69.2128 180.586 69.1229 180.56 68.9844C180.534 68.8444 180.419 68.7353 180.287 68.7256C180.131 68.7144 180.062 68.6332 180.074 68.4756C180.086 68.3031 180.03 68.2546 179.855 68.2871C179.502 68.3528 179.23 68.2771 179.198 68.1045C179.167 67.9405 179.001 67.9051 178.291 67.9111C177.959 67.9139 177.832 67.8582 177.802 67.6963C177.775 67.5522 177.679 67.4921 177.521 67.5215C177.334 67.5562 177.288 67.5125 177.312 67.3213C177.337 67.1156 177.289 67.0854 177.015 67.1348C176.611 67.2075 176.313 67.0984 176.387 66.9053C176.423 66.814 176.301 66.7581 176.059 66.7549C175.836 66.7518 175.636 66.6675 175.582 66.5537C175.522 66.4261 175.326 66.3602 175.019 66.3652C174.639 66.3715 174.553 66.331 174.575 66.1553C174.597 65.972 174.503 65.9436 173.976 65.9736C172.457 66.0604 171.871 66.0322 171.9 65.874C171.933 65.6923 171.553 65.6376 170.978 65.7422C170.673 65.7976 170.611 65.8498 170.691 65.9805C170.75 66.0763 170.739 66.126 170.665 66.0977C170.595 66.0703 170.524 65.9735 170.507 65.8818C170.49 65.79 170.398 65.7294 170.302 65.7471C170.206 65.7649 170.143 65.8575 170.161 65.9531C170.197 66.1491 169.975 66.203 168.761 66.292C168.058 66.3436 167.968 66.3739 167.954 66.5674C167.941 66.7552 167.849 66.7917 167.277 66.835C166.717 66.8772 166.62 66.9136 166.65 67.0723C166.669 67.178 166.615 67.242 166.44 67.2949L166.002 67.3965C165.826 67.4495 165.772 67.5138 165.792 67.6211C165.822 67.7832 165.727 67.8167 165.118 67.8604C164.52 67.903 164.413 67.9399 164.441 68.0908C164.465 68.2232 164.352 68.2929 164.01 68.3564C163.717 68.411 163.588 68.4735 163.577 68.5723L163.58 68.6621C163.568 68.7606 163.44 68.8225 163.148 68.877C162.813 68.9393 162.693 69.0121 162.716 69.1377C162.734 69.2341 162.645 69.3304 162.517 69.3545C162.388 69.3784 162.299 69.4748 162.317 69.5713C162.34 69.696 162.222 69.7689 161.899 69.8291C161.475 69.9079 161.447 69.9388 161.447 70.333C161.446 70.5892 161.379 70.7656 161.274 70.7852C161.179 70.803 161.087 70.9016 161.068 71.0039C161.049 71.1062 160.934 71.208 160.814 71.2305C160.656 71.2599 160.61 71.3548 160.65 71.5684C160.746 72.0843 160.643 72.9413 160.483 72.9717C160.387 72.9895 160.325 73.2698 160.321 73.7119C160.316 74.1464 160.277 74.3591 160.192 74.3916L160.114 74.3975C160.029 74.427 159.985 74.6258 159.977 75.0234C159.967 75.5071 159.906 75.7088 159.748 75.7832C159.601 75.8523 159.55 75.9897 159.586 76.2158C159.66 76.6755 159.575 77.0389 159.385 77.0742C159.222 77.1047 159.221 78.0026 159.384 79.8633C159.442 80.5189 159.474 80.6786 159.593 80.6875L159.706 80.6797C159.826 80.689 159.859 80.8514 159.919 81.5195C159.985 82.2374 160.034 82.403 160.195 82.458C160.368 82.5173 160.403 82.6923 160.504 84.0029C160.73 86.9317 160.732 86.8396 160.426 86.8965C160.26 86.9274 160.165 87.0158 160.185 87.1211C160.207 87.2414 160.097 87.3177 159.826 87.3682C159.523 87.4245 159.429 87.5003 159.414 87.7002C159.403 87.8645 159.329 87.9469 159.214 87.9258C159.102 87.9051 159.026 87.9821 159.016 88.127C159.006 88.2645 158.898 88.3808 158.756 88.4072C158.618 88.433 158.528 88.5267 158.546 88.626C158.564 88.7215 158.479 88.8184 158.359 88.8408C158.238 88.8633 158.123 88.9728 158.102 89.084C158.072 89.2434 157.952 89.2938 157.529 89.3242C157.234 89.3454 156.964 89.3441 156.931 89.3213C156.898 89.2974 156.818 89.1046 156.753 88.8916C156.656 88.5685 156.572 88.4963 156.253 88.4658C155.924 88.4343 155.86 88.3761 155.799 88.0479C155.731 87.6825 155.704 87.666 155.176 87.6846C154.794 87.6981 154.596 87.6445 154.533 87.5088C154.433 87.2976 154.16 87.2774 152.887 87.3867C152.198 87.4458 152.095 87.4809 152.125 87.6436C152.155 87.803 152.05 87.8425 151.437 87.9043C151.394 87.9086 151.353 87.9103 151.314 87.9141L165.389 38.6797H252.821ZM150.579 0C158.414 0.000279501 164.07 7.50063 161.916 15.0342L141.806 85.3838C140.957 85.4501 140.93 85.4983 140.963 85.6758C140.993 85.8335 140.906 85.8703 140.435 85.8975C138.748 85.995 138.255 86.0701 138.188 86.2402C138.133 86.3824 137.86 86.4343 136.607 86.542C134.559 86.718 129.84 87.0083 127.435 87.1055C126.355 87.1493 125.124 87.2078 124.701 87.2354C124.277 87.263 123.889 87.2822 123.839 87.2793C123.789 87.2764 123.696 87.2768 123.633 87.2803C123.57 87.2836 123.534 87.203 123.553 87.1006C123.573 86.9919 123.522 86.9262 123.43 86.9424C123.344 86.958 121.804 87.0561 120.009 87.1602C116.347 87.3725 116.319 87.376 116.392 87.5479C116.445 87.6713 114.601 88.0423 114.373 87.9541C114.317 87.9327 114.292 88.0264 114.318 88.1631C114.36 88.3892 114.32 88.4127 113.886 88.4199C113.495 88.4264 113.414 88.4618 113.442 88.6123C113.468 88.7529 113.353 88.8193 112.954 88.8936C112.568 88.9655 112.441 89.0353 112.465 89.1641C112.488 89.2845 112.376 89.3605 112.104 89.4111C111.861 89.4563 111.697 89.5559 111.676 89.6709C111.655 89.7878 111.489 89.8858 111.232 89.9336C110.946 89.9869 110.832 90.0619 110.855 90.1836C110.878 90.309 110.759 90.3811 110.424 90.4434C110.089 90.5057 109.969 90.5785 109.993 90.7041C110.01 90.7996 109.926 90.8965 109.805 90.9189C109.685 90.9415 109.57 91.0489 109.549 91.1582C109.522 91.3073 109.394 91.3689 109.041 91.4004C108.735 91.4276 108.58 91.4892 108.596 91.5771C108.624 91.725 108.125 91.9962 107.95 91.9287C107.89 91.9055 107.833 91.9964 107.824 92.1299C107.809 92.3313 107.735 92.3737 107.392 92.3828C107.092 92.3907 106.998 92.4251 106.97 92.5684L106.953 92.7051C106.924 92.8486 106.832 92.8817 106.531 92.8887C106.184 92.8966 106.114 92.9386 106.099 93.1465C106.086 93.329 106.013 93.3905 105.825 93.377C105.642 93.3639 105.578 93.4124 105.603 93.5459C105.629 93.6872 105.524 93.7543 105.174 93.8193C104.839 93.8817 104.719 93.9545 104.743 94.0801C104.76 94.1741 104.697 94.2386 104.524 94.291L104.1 94.3887C103.955 94.4325 103.887 94.4849 103.878 94.5557L103.882 94.6436C103.872 94.7393 103.757 94.8024 103.519 94.8467C103.276 94.8918 103.113 94.9915 103.091 95.1064C103.07 95.2218 102.906 95.3214 102.661 95.3672C102.403 95.4151 102.25 95.5109 102.226 95.6406C102.199 95.7854 102.078 95.8483 101.784 95.8682C101.468 95.8896 101.374 95.9442 101.362 96.1133C101.353 96.2332 101.242 96.3505 101.116 96.374C100.989 96.3976 100.871 96.4946 100.854 96.5889C100.831 96.7096 100.649 96.7822 100.238 96.8359C99.7396 96.9012 99.6509 96.9483 99.6361 97.1533C99.6233 97.3325 99.5542 97.3858 99.3646 97.3623C99.1649 97.3376 99.1194 97.3811 99.1537 97.5654C99.1911 97.7667 99.1381 97.8024 98.7719 97.8232C98.4181 97.8433 98.3423 97.8898 98.3275 98.0947C98.3152 98.2663 98.2421 98.3343 98.0893 98.3154C97.9428 98.2973 97.8588 98.3635 97.8402 98.5137C97.8183 98.6904 97.722 98.7456 97.3979 98.7676C97.0765 98.7894 96.992 98.8375 97.0189 98.9824C97.0451 99.1228 96.9389 99.19 96.5902 99.2549C96.2063 99.3263 96.1332 99.3813 96.1684 99.5703C96.1988 99.7342 96.1531 99.7878 96.0062 99.7607C95.882 99.7381 95.7577 99.8167 95.6879 99.9619C95.6179 100.108 95.4355 100.222 95.2201 100.256C94.9416 100.3 94.8765 100.361 94.9105 100.544C94.9442 100.725 94.8984 100.769 94.6996 100.744C94.5118 100.721 94.4406 100.773 94.4281 100.945C94.4156 101.121 94.3144 101.193 94.0189 101.238C93.7326 101.282 93.6212 101.357 93.6098 101.516C93.5973 101.688 93.5061 101.739 93.1684 101.758C92.8062 101.778 92.7479 101.816 92.7836 102.008C92.8116 102.158 92.7465 102.249 92.5902 102.278C92.4768 102.3 92.3699 102.382 92.3324 102.471L92.309 102.547C92.2728 102.635 92.1724 102.717 92.0668 102.736C91.9462 102.759 91.8615 102.856 91.8793 102.951C91.9016 103.073 91.7886 103.148 91.5023 103.201C91.2458 103.249 91.0808 103.346 91.059 103.463C91.04 103.565 90.9258 103.668 90.8051 103.69C90.6844 103.713 90.5998 103.81 90.6176 103.905C90.6409 104.031 90.5215 104.103 90.1869 104.165C89.852 104.227 89.7319 104.3 89.7553 104.426C89.7731 104.522 89.6845 104.618 89.5561 104.643C89.4274 104.667 89.3382 104.763 89.3559 104.859C89.3792 104.985 89.2598 105.058 88.9252 105.12C88.5904 105.182 88.4703 105.254 88.4936 105.38C88.5114 105.476 88.427 105.572 88.307 105.595C88.1862 105.617 88.0815 105.744 88.0717 105.879C88.0597 106.046 87.9893 106.111 87.849 106.085C87.7063 106.059 87.6383 106.126 87.6254 106.306C87.6147 106.454 87.5133 106.582 87.3881 106.605C87.2681 106.628 87.1826 106.717 87.1986 106.803C87.2161 106.899 87.0856 106.99 86.8568 107.039C86.6527 107.083 86.4414 107.211 86.3871 107.324C86.3328 107.437 86.2026 107.546 86.098 107.565C85.9935 107.585 85.9221 107.679 85.9398 107.774C85.9576 107.87 85.8743 107.967 85.7543 107.989C85.629 108.013 85.5277 108.14 85.517 108.289C85.5045 108.462 85.4341 108.535 85.3051 108.512C85.1826 108.489 85.1225 108.54 85.143 108.65C85.1605 108.746 85.0905 108.875 84.9867 108.937C84.8829 108.998 84.7691 109.126 84.7338 109.22C84.6985 109.314 84.5741 109.408 84.4574 109.43C84.3405 109.451 84.2367 109.579 84.227 109.713C84.216 109.866 84.1413 109.944 84.0268 109.923C83.8947 109.898 83.8436 110.008 83.8432 110.316C83.8427 110.633 83.7843 110.755 83.6166 110.786C83.4648 110.814 83.4043 110.907 83.434 111.067C83.4679 111.249 83.423 111.3 83.2475 111.278C83.0593 111.255 83.0164 111.329 83.016 111.674C83.0156 111.91 82.9457 112.11 82.8588 112.126C82.6157 112.171 82.594 112.569 82.8285 112.682C82.941 112.736 83.0636 112.943 83.101 113.144C83.1529 113.423 83.1178 113.518 82.9506 113.549C82.8295 113.571 82.724 113.698 82.7143 113.833C82.7033 113.986 82.6286 114.064 82.5141 114.043C82.3822 114.019 82.3319 114.128 82.3314 114.437C82.331 114.753 82.2717 114.874 82.1039 114.905C81.9504 114.934 81.8923 115.027 81.9232 115.193C81.9573 115.377 81.9101 115.434 81.7387 115.422C81.5426 115.408 81.5147 115.494 81.5463 116.014C81.5667 116.348 81.5942 116.849 81.6068 117.127C81.6277 117.581 81.6545 117.628 81.8695 117.588C82.4845 117.474 83.3047 117.582 83.4027 117.79C83.4856 117.966 83.6067 117.985 84.0932 117.895C84.5407 117.811 84.6762 117.742 84.6518 117.61C84.6316 117.502 84.7292 117.416 84.9096 117.383C85.0898 117.349 85.1865 117.262 85.1664 117.154C85.1487 117.058 85.238 116.961 85.3666 116.938C85.479 116.916 85.5609 116.84 85.5678 116.757L85.5639 116.685C85.5704 116.602 85.6506 116.525 85.7592 116.505C85.8836 116.482 86.0139 116.381 86.0482 116.282C86.1192 116.078 86.2614 116.017 86.9018 115.918L87.3539 115.848L87.3783 116.323C87.3979 116.71 87.4387 116.794 87.5961 116.772C87.7028 116.758 88.097 116.728 88.4721 116.706C89.0856 116.669 89.1502 116.644 89.1146 116.452C89.081 116.271 89.1466 116.234 89.5482 116.208C89.951 116.182 90.0167 116.145 89.9828 115.963C89.9489 115.78 90.0125 115.745 90.4184 115.725C90.8482 115.703 90.889 115.676 90.8461 115.445C90.8086 115.243 90.8497 115.198 91.0443 115.222C91.2387 115.246 91.2799 115.198 91.2426 114.998C91.2054 114.798 91.2494 114.749 91.4525 114.764C91.6377 114.777 91.7138 114.717 91.726 114.547C91.7354 114.417 91.8412 114.293 91.9613 114.271C92.0811 114.248 92.1645 114.152 92.1469 114.057C92.1289 113.96 92.2175 113.863 92.3461 113.839C92.4969 113.811 92.5642 113.719 92.5375 113.575C92.507 113.411 92.5593 113.359 92.7396 113.372C92.926 113.385 92.9719 113.332 92.9369 113.144C92.9063 112.979 92.9643 112.884 93.1137 112.856C93.265 112.828 93.3403 112.704 93.348 112.466C93.3542 112.274 93.449 112.074 93.559 112.022C93.7089 111.952 93.749 111.762 93.7191 111.261C93.6873 110.728 93.7209 110.585 93.8871 110.554C94.0499 110.523 94.089 110.384 94.0648 109.921C94.0401 109.447 94.0786 109.318 94.2523 109.286C94.4158 109.255 94.4674 109.126 94.4613 108.764C94.4546 108.359 94.4918 108.285 94.6879 108.31C94.8661 108.332 94.9114 108.282 94.8773 108.099C94.8472 107.936 94.9069 107.845 95.0639 107.815C95.1927 107.791 95.282 107.695 95.2641 107.599C95.2464 107.503 95.3297 107.407 95.4496 107.385C95.5749 107.361 95.6761 107.233 95.6869 107.085C95.6998 106.905 95.7678 106.837 95.9105 106.863C96.0519 106.889 96.1216 106.824 96.1342 106.651C96.1455 106.494 96.2192 106.412 96.3334 106.434C96.4438 106.454 96.5207 106.379 96.5307 106.242C96.5419 106.086 96.6592 105.992 96.9096 105.938C97.1088 105.895 97.3203 105.76 97.3793 105.637C97.4595 105.47 97.5934 105.411 97.9096 105.403C98.2571 105.395 98.3251 105.358 98.2943 105.192C98.2644 105.032 98.3382 104.986 98.6596 104.964C98.9893 104.941 99.0684 104.889 99.0951 104.674C99.1187 104.484 99.1929 104.419 99.3637 104.44C99.5275 104.461 99.5894 104.414 99.5658 104.287C99.534 104.115 99.7683 104 100.252 103.951C100.387 103.938 100.443 103.848 100.414 103.692C100.376 103.485 100.425 103.453 100.799 103.443C101.163 103.434 101.23 103.394 101.246 103.179C101.258 103.003 101.334 102.929 101.491 102.94C101.657 102.952 101.705 102.894 101.673 102.721C101.634 102.512 101.684 102.481 102.104 102.46C102.514 102.439 102.574 102.406 102.538 102.216C102.513 102.076 102.579 101.98 102.717 101.954C102.838 101.932 102.953 101.822 102.974 101.711C103.002 101.556 103.11 101.506 103.433 101.499C103.738 101.492 103.864 101.439 103.888 101.31C103.911 101.184 104.108 101.095 104.546 101.014C105.028 100.924 105.164 100.856 105.139 100.721C105.112 100.576 105.231 100.534 105.814 100.48C106.421 100.425 106.516 100.389 106.486 100.224C106.455 100.06 106.556 100.018 107.155 99.9512C107.745 99.8848 107.855 99.8418 107.826 99.6855C107.797 99.5319 107.904 99.485 108.436 99.4209C108.98 99.3552 109.075 99.3124 109.044 99.1465C109.013 98.977 109.104 98.9412 109.715 98.8838C110.324 98.8267 110.417 98.7908 110.386 98.623C110.357 98.4655 110.441 98.4196 110.823 98.3857C111.203 98.3518 111.287 98.3061 111.258 98.1494C111.228 97.9863 111.331 97.9394 111.894 97.8613C112.409 97.7899 112.566 97.7269 112.567 97.5918C112.568 97.4628 112.693 97.4047 113.037 97.374C113.406 97.3411 113.497 97.2933 113.47 97.1465C113.443 96.9982 113.566 96.9363 114.074 96.8418C114.563 96.7507 114.704 96.6824 114.679 96.5488C114.659 96.4408 114.756 96.3549 114.936 96.3213C115.116 96.2878 115.214 96.2017 115.194 96.0938C115.17 95.9682 115.29 95.8953 115.625 95.833C115.966 95.7696 116.08 95.6989 116.055 95.5674C116.037 95.4693 116.089 95.3854 116.17 95.3809C116.607 95.3569 116.948 95.2108 116.92 95.0605C116.885 94.8704 117.017 94.8537 119.809 94.6992C120.798 94.6444 121.639 94.5941 121.678 94.5869C121.717 94.5804 121.766 94.672 121.788 94.791C121.819 94.9534 121.946 95.005 122.293 94.9961C122.634 94.9874 122.763 95.0379 122.779 95.1865C122.796 95.3524 122.974 95.384 123.753 95.3574C124.278 95.3395 124.775 95.3163 124.859 95.3057C124.942 95.2954 125.011 95.3787 125.013 95.4912C125.015 95.66 125.165 95.6915 125.849 95.666C126.464 95.6431 126.7 95.6831 126.753 95.8193C126.795 95.9266 126.986 96.003 127.208 96.002C127.577 95.9999 131.992 95.7861 132.108 95.7646C132.138 95.7589 132.183 95.8588 132.206 95.9863C132.237 96.153 132.327 96.2037 132.525 96.167C133.132 96.054 133.551 96.1229 133.592 96.3428C133.62 96.4903 133.717 96.5454 133.894 96.5137C134.246 96.4508 134.526 96.5756 134.454 96.7627C134.418 96.8562 134.493 96.9213 134.65 96.9326C134.846 96.9468 134.922 97.043 134.979 97.3477C135.024 97.5922 135.124 97.7558 135.239 97.7773C135.458 97.8179 135.51 98.0256 135.455 98.6514L135.415 99.1094L134.162 99.2656L134.192 99.8496C134.214 100.27 134.167 100.461 134.025 100.527C133.869 100.601 133.835 100.851 133.862 101.715C133.889 102.602 133.859 102.81 133.703 102.813C133.553 102.817 133.517 102.959 133.543 103.442C133.595 104.39 133.565 104.582 133.353 104.683C133.212 104.749 133.166 104.944 133.189 105.384C133.215 105.883 133.18 106.001 132.994 106.036C132.823 106.068 132.779 106.158 132.823 106.397C132.92 106.933 132.85 107.261 132.63 107.303C132.478 107.331 132.424 107.47 132.43 107.822C132.436 108.174 132.385 108.304 132.244 108.307C132.137 108.309 132.053 108.391 132.057 108.489C132.095 109.467 132.077 109.565 131.857 109.605C131.708 109.633 131.645 109.727 131.673 109.88C131.702 110.034 131.639 110.127 131.485 110.155C131.334 110.183 131.268 110.275 131.294 110.42C131.363 110.79 131.274 111.034 131.056 111.074C130.912 111.101 130.85 111.239 130.849 111.532C130.849 111.779 130.78 111.965 130.683 111.983C130.592 112.001 130.504 112.192 130.488 112.409C130.469 112.658 130.388 112.812 130.27 112.824C130.139 112.838 130.084 112.985 130.089 113.308C130.095 113.657 130.043 113.781 129.875 113.812C129.739 113.838 129.683 113.913 129.696 114.062L129.725 114.267C129.743 114.424 129.754 114.631 129.751 114.79C129.747 115.09 129.696 115.172 129.52 115.159C129.337 115.146 129.305 115.212 129.351 115.511C129.443 116.111 129.368 116.489 129.157 116.492C129.007 116.494 128.973 116.64 129.003 117.15C129.034 117.668 128.999 117.814 128.837 117.845C128.691 117.872 128.632 118.012 128.635 118.332C128.641 119.044 128.606 119.207 128.438 119.238C128.34 119.257 128.275 119.519 128.266 119.93C128.257 120.366 128.194 120.603 128.083 120.624C127.987 120.642 127.913 120.817 127.91 121.032C127.907 121.247 127.822 121.448 127.711 121.5C127.605 121.55 127.51 121.695 127.5 121.823C127.49 121.972 127.416 122.043 127.294 122.021C127.153 121.994 127.103 122.095 127.103 122.415C127.102 122.728 127.043 122.856 126.883 122.886C126.742 122.912 126.68 123.009 126.707 123.159C126.736 123.312 126.673 123.405 126.524 123.433C126.357 123.464 126.298 123.585 126.297 123.895C126.297 124.157 126.249 124.291 126.135 124.339L126.03 124.37C125.915 124.419 125.869 124.553 125.869 124.821C125.868 125.13 125.817 125.239 125.685 125.215C125.57 125.194 125.496 125.272 125.485 125.425C125.471 125.609 125.37 125.687 125.072 125.742C124.827 125.788 124.663 125.887 124.641 126.002C124.622 126.104 124.514 126.205 124.401 126.227C124.288 126.248 124.187 126.375 124.177 126.509C124.166 126.671 124.094 126.74 123.962 126.716C123.82 126.69 123.777 126.748 123.81 126.924C123.84 127.084 123.781 127.182 123.64 127.208C123.497 127.235 123.411 127.382 123.384 127.646C123.356 127.918 123.28 128.044 123.141 128.046C123.006 128.048 122.953 128.127 122.983 128.285C123.012 128.44 122.951 128.536 122.808 128.562C122.65 128.592 122.59 128.72 122.589 129.023C122.589 129.323 122.527 129.455 122.374 129.483C122.223 129.512 122.161 129.642 122.161 129.93C122.16 130.18 122.082 130.372 121.958 130.431C121.84 130.486 121.755 130.681 121.752 130.902C121.749 131.127 121.676 131.292 121.571 131.312C121.473 131.33 121.408 131.423 121.426 131.519C121.444 131.616 121.355 131.712 121.224 131.736C121.054 131.768 120.988 131.883 120.984 132.156C120.981 132.38 120.896 132.573 120.775 132.63C120.663 132.683 120.585 132.802 120.603 132.896C120.62 132.991 120.533 133.115 120.409 133.174C120.27 133.239 120.18 133.415 120.177 133.626C120.174 133.859 120.102 133.984 119.955 134.012C119.816 134.038 119.754 134.135 119.782 134.284C119.809 134.43 119.747 134.53 119.616 134.555C119.483 134.58 119.382 134.75 119.336 135.026C119.297 135.265 119.19 135.473 119.098 135.49C119.007 135.507 118.946 135.6 118.964 135.695C118.982 135.791 118.899 135.888 118.779 135.91C118.653 135.933 118.552 136.061 118.541 136.209C118.529 136.378 118.457 136.456 118.335 136.434C118.218 136.412 118.137 136.489 118.119 136.639C118.102 136.77 117.988 136.896 117.865 136.919C117.742 136.942 117.656 137.039 117.673 137.135C117.691 137.231 117.602 137.329 117.473 137.353C117.345 137.377 117.256 137.473 117.274 137.569C117.291 137.665 117.206 137.761 117.084 137.784C116.916 137.816 116.865 137.942 116.871 138.309C116.878 138.713 116.841 138.786 116.645 138.762C116.467 138.74 116.421 138.79 116.455 138.973C116.486 139.135 116.425 139.227 116.268 139.256C116.156 139.277 116.074 139.353 116.067 139.437L116.071 139.509C116.066 139.591 115.993 139.667 115.893 139.686C115.759 139.711 115.671 139.864 115.645 140.121C115.618 140.386 115.535 140.526 115.398 140.54C115.269 140.554 115.207 140.644 115.233 140.781C115.258 140.918 115.192 141.016 115.055 141.041C114.934 141.064 114.83 141.19 114.82 141.324C114.81 141.458 114.719 141.583 114.618 141.603C114.516 141.621 114.446 141.715 114.464 141.811C114.482 141.906 114.398 142.003 114.278 142.025C114.048 142.068 113.957 142.306 114.027 142.682C114.053 142.825 113.988 142.919 113.842 142.946C113.675 142.977 113.615 143.098 113.615 143.408C113.614 143.701 113.551 143.839 113.408 143.866C113.265 143.893 113.202 144.031 113.202 144.312C113.201 144.562 113.123 144.755 112.998 144.813C112.85 144.884 112.806 145.07 112.829 145.521C112.855 146.007 112.819 146.136 112.659 146.139C112.506 146.141 112.462 146.257 112.479 146.618C112.504 147.172 112.433 147.406 112.228 147.444C112.125 147.465 112.119 148.101 112.204 149.578C112.403 152.993 112.404 152.872 112.164 152.896C112.01 152.911 111.978 152.974 112.05 153.127C112.098 153.228 112.101 153.319 112.063 153.348L112.024 153.365C111.98 153.397 111.963 153.503 111.985 153.621C112.019 153.805 111.972 153.862 111.799 153.85C111.6 153.835 111.573 153.921 111.606 154.472C111.636 154.98 111.602 155.118 111.434 155.149C111.285 155.177 111.223 155.311 111.223 155.608C111.223 155.918 111.163 156.039 110.996 156.07C110.838 156.1 110.783 156.193 110.816 156.374C110.873 156.694 110.797 156.881 110.549 157.028C110.445 157.09 110.375 157.221 110.393 157.318C110.412 157.418 110.326 157.515 110.195 157.539C110.066 157.563 109.977 157.659 109.995 157.756C110.013 157.852 109.924 157.949 109.795 157.973C109.667 157.997 109.578 158.094 109.596 158.19C109.614 158.286 109.529 158.382 109.41 158.404C109.286 158.428 109.184 158.555 109.173 158.699C109.159 158.892 109.093 158.946 108.901 158.922C108.718 158.899 108.656 158.941 108.68 159.072C108.699 159.172 108.611 159.281 108.486 159.314C108.36 159.348 108.193 159.392 108.115 159.413C108.036 159.434 107.951 159.55 107.926 159.67C107.901 159.79 107.775 159.908 107.645 159.933C107.529 159.954 107.446 160.03 107.44 160.114L107.444 160.187C107.439 160.246 107.396 160.302 107.33 160.337L107.155 160.397C107.076 160.439 107.029 160.512 107.042 160.584C107.066 160.71 106.946 160.782 106.612 160.845C106.277 160.907 106.157 160.979 106.18 161.104C106.204 161.231 106.082 161.303 105.736 161.367C105.361 161.437 105.281 161.49 105.359 161.617C105.43 161.734 105.379 161.794 105.172 161.832C104.995 161.865 104.898 161.952 104.918 162.06C104.936 162.155 104.852 162.251 104.732 162.273C104.608 162.297 104.506 162.424 104.496 162.568C104.482 162.761 104.416 162.815 104.223 162.791C104.027 162.767 103.978 162.81 104.009 162.979C104.042 163.156 103.975 163.205 103.651 163.239C103.338 163.272 103.247 163.333 103.234 163.519C103.224 163.658 103.117 163.774 102.974 163.801C102.836 163.827 102.746 163.92 102.764 164.02C102.784 164.128 102.687 164.214 102.506 164.247C102.337 164.279 102.229 164.368 102.246 164.462C102.263 164.55 102.21 164.633 102.13 164.645C101.6 164.723 101.488 164.812 101.477 165.159C101.47 165.358 101.391 165.534 101.301 165.551C101.2 165.57 101.143 165.765 101.151 166.06C101.16 166.414 101.108 166.547 100.951 166.576C100.8 166.604 100.739 166.738 100.739 167.039C100.738 167.384 100.695 167.457 100.506 167.434C100.331 167.412 100.286 167.464 100.32 167.646C100.35 167.808 100.289 167.899 100.132 167.928C100.004 167.952 99.9153 168.048 99.933 168.145C99.9564 168.27 99.8363 168.343 99.5014 168.405C99.1669 168.468 99.0475 168.54 99.0707 168.665C99.0908 168.773 98.9933 168.86 98.8129 168.894C98.6325 168.927 98.535 169.013 98.5551 169.121C98.5774 169.241 98.4668 169.317 98.1947 169.368C97.952 169.413 97.7883 169.513 97.767 169.628C97.7453 169.745 97.5795 169.842 97.3227 169.89C97.0226 169.945 96.923 170.017 96.9486 170.154C96.9779 170.312 96.8706 170.354 96.2787 170.421C95.7491 170.48 95.5808 170.538 95.602 170.652C95.6336 170.823 95.0661 170.953 94.2787 170.955C93.9363 170.956 93.7978 170.902 93.7953 170.768C93.7925 170.62 93.6353 170.59 93.0717 170.63C92.3099 170.684 92.0651 170.668 91.9906 170.529L91.9506 170.409C91.8963 170.298 91.7205 170.273 91.1332 170.265C90.9123 170.261 90.7164 170.176 90.6615 170.06C90.6025 169.934 90.4059 169.86 90.1322 169.859C89.8802 169.859 89.6838 169.791 89.6664 169.698C89.65 169.61 89.5327 169.525 89.4057 169.509C89.2786 169.493 89.1648 169.39 89.1527 169.279C89.1374 169.135 89.0133 169.082 88.7143 169.093C88.4133 169.104 88.2963 169.054 88.2934 168.913C88.2905 168.775 88.1544 168.71 87.8324 168.692C87.5158 168.675 87.369 168.606 87.3549 168.469C87.3411 168.335 87.2476 168.287 87.0678 168.32C86.6554 168.397 86.4103 168.317 86.3686 168.093C86.3392 167.935 86.2032 167.898 85.7729 167.929C85.466 167.951 85.1868 167.918 85.1518 167.855C85.1172 167.793 85.019 167.785 84.934 167.837C84.8413 167.894 84.7664 167.861 84.7465 167.754C84.722 167.622 84.4804 167.582 83.8178 167.598C83.076 167.616 82.9157 167.582 82.8822 167.403C82.8597 167.282 82.7602 167.202 82.6557 167.222C82.5529 167.241 79.9512 167.403 76.8744 167.581C73.7975 167.76 69.4931 168.02 67.309 168.159C65.125 168.299 62.1882 168.47 60.7826 168.539C59.3771 168.608 57.9464 168.681 57.6039 168.701C57.0982 168.731 56.9734 168.697 56.9398 168.518C56.9166 168.393 56.8185 168.311 56.7143 168.33C56.5632 168.358 56.5154 168.249 56.4516 167.726C56.3877 167.201 56.3365 167.083 56.1664 167.071C56.0037 167.06 55.9572 166.968 55.9496 166.644C55.9414 166.29 55.9019 166.227 55.6732 166.211C55.4684 166.196 55.4137 166.132 55.4379 165.938C55.4605 165.754 55.4184 165.693 55.2875 165.717C55.1865 165.736 55.0875 165.653 55.0648 165.531C55.0423 165.411 54.9428 165.297 54.8441 165.279C54.7455 165.261 54.5951 165.066 54.5102 164.847C54.4251 164.627 54.2989 164.469 54.2289 164.496C53.9724 164.596 53.5304 164.462 53.5609 164.295C53.5998 164.084 53.4242 164.065 52.1703 164.143C50.7921 164.228 50.5151 164.29 50.5541 164.499C50.5691 164.58 50.5188 164.649 50.4164 164.692L50.1781 164.761C50.0755 164.804 50.0246 164.873 50.0395 164.954C50.0621 165.076 49.9496 165.151 49.6664 165.204C49.4432 165.246 49.2704 165.333 49.2826 165.398C49.2944 165.464 49.1833 165.59 49.0355 165.681C48.8876 165.771 48.7821 165.93 48.8012 166.035C48.826 166.168 48.7634 166.22 48.5932 166.208C48.4132 166.195 48.3615 166.248 48.392 166.412C48.4186 166.556 48.3513 166.648 48.2006 166.676C48.0878 166.697 48.0059 166.774 47.9994 166.857L48.0033 166.93C47.9965 167.014 47.9137 167.09 47.7982 167.111C47.6687 167.135 47.5477 167.238 47.5287 167.341C47.5098 167.443 47.3953 167.546 47.2748 167.568C47.1541 167.591 47.0695 167.688 47.0873 167.783C47.1104 167.909 46.9903 167.981 46.6557 168.043C46.3209 168.105 46.2007 168.178 46.224 168.304C46.2471 168.429 46.1278 168.501 45.7934 168.563C45.4429 168.629 45.3383 168.696 45.3646 168.838C45.3939 168.995 45.2928 169.037 44.7562 169.092C44.2421 169.144 44.1136 169.194 44.1127 169.343C44.1116 169.485 43.9768 169.546 43.5277 169.606C43.2065 169.65 42.7946 169.684 42.6127 169.682C42.3344 169.678 42.2895 169.717 42.3285 169.927C42.3649 170.123 42.3225 170.168 42.1293 170.145C41.9552 170.123 41.8936 170.167 41.9174 170.296C41.9496 170.469 41.7163 170.579 41.2279 170.619C41.091 170.63 41.0364 170.717 41.0658 170.875C41.0959 171.037 41.035 171.128 40.8783 171.157C40.7495 171.181 40.6602 171.278 40.6781 171.375C40.6956 171.47 40.612 171.566 40.4916 171.589C40.3709 171.611 40.2567 171.714 40.2377 171.816C40.2189 171.919 40.1269 172.017 40.0336 172.034C39.9403 172.052 39.8491 172.181 39.8314 172.322C39.8095 172.499 39.7283 172.574 39.5687 172.562C39.401 172.55 39.3485 172.607 39.3783 172.768C39.4049 172.911 39.3384 173.003 39.1879 173.031C39.0754 173.052 38.9927 173.129 38.9857 173.212L38.9896 173.284C38.9832 173.367 38.9024 173.445 38.7934 173.465C38.6265 173.496 38.5672 173.617 38.5668 173.927C38.5664 174.231 38.5054 174.358 38.3471 174.388C38.2268 174.41 38.143 174.506 38.1605 174.602C38.1783 174.697 38.0914 174.794 37.9682 174.817C37.8437 174.841 37.7311 174.972 37.7133 175.113C37.695 175.261 37.6109 175.355 37.5131 175.337C37.4172 175.319 37.3318 175.409 37.3148 175.545C37.2986 175.676 37.1841 175.803 37.0609 175.826C36.9532 175.846 36.873 175.923 36.8666 176.006L36.8705 176.078C36.8637 176.162 36.7819 176.238 36.6693 176.259C36.5105 176.288 36.4515 176.38 36.4828 176.548C36.5172 176.733 36.4714 176.789 36.2943 176.776C36.1496 176.766 36.0905 176.807 36.0727 176.984L36.0609 177.438C36.0431 177.615 35.9839 177.656 35.8393 177.646C35.6621 177.633 35.6163 177.689 35.6508 177.874C35.6811 178.037 35.6226 178.133 35.477 178.16C35.3187 178.19 35.2576 178.317 35.2572 178.621C35.2568 178.93 35.1976 179.052 35.0307 179.083C34.8546 179.116 34.8187 179.205 34.8705 179.483C34.918 179.739 34.8768 179.871 34.727 179.941C34.6113 179.996 34.5068 180.158 34.4955 180.303C34.4626 180.724 34.602 181.32 34.7279 181.298C34.7917 181.286 34.8634 181.381 34.8871 181.509C34.9109 181.636 34.9769 181.731 35.0336 181.721C35.0903 181.71 35.1455 181.791 35.1566 181.9C35.1812 182.141 35.6013 182.166 37.0502 182.014C37.9781 181.916 38.0758 181.885 38.0424 181.705C38.0095 181.529 38.0901 181.499 38.7162 181.456C39.3226 181.414 39.4214 181.38 39.392 181.222C39.3727 181.118 39.4284 181.053 39.6039 181L40.0395 180.9C40.2151 180.847 40.2699 180.783 40.2504 180.678C40.2231 180.531 40.3146 180.483 40.6879 180.449C41.0153 180.42 41.1511 180.362 41.1322 180.26C41.1031 180.103 41.3439 180.017 42.06 179.928C42.3982 179.886 42.4921 179.829 42.4652 179.685C42.4369 179.532 42.5251 179.489 42.932 179.458C43.2085 179.437 43.7805 179.39 44.2025 179.354C45.0408 179.282 47.5485 179.112 48.2602 179.08C48.6206 179.064 48.699 179.023 48.6703 178.868C48.6389 178.699 48.7469 178.665 49.5766 178.581C50.376 178.5 50.5137 178.459 50.4857 178.309C50.4627 178.184 50.5728 178.11 50.8588 178.057C51.1415 178.004 51.2542 177.929 51.2318 177.808C51.1968 177.619 51.5868 177.506 52.2416 177.515C52.4902 177.518 52.6307 177.588 52.6557 177.722C52.6859 177.884 52.838 177.913 53.432 177.867C53.8385 177.836 54.3458 177.808 54.56 177.806C54.8661 177.803 54.9418 177.762 54.9145 177.615C54.8953 177.513 54.9192 177.422 54.9672 177.414C55.0831 177.395 58.9234 177.145 59.5863 177.113C59.9103 177.098 60.1222 177.155 60.1859 177.273C60.267 177.425 60.6766 177.432 62.5062 177.316C64.8721 177.166 67.724 177.048 67.9809 177.089C68.0658 177.102 68.1487 177.186 68.1654 177.274C68.1859 177.385 68.4112 177.422 68.8725 177.391C69.851 177.325 70.0921 177.356 70.058 177.542C70.0273 177.708 70.1759 177.727 71.227 177.691C71.5816 177.68 71.7767 177.736 71.8393 177.869C71.9091 178.017 72.1488 178.059 72.8393 178.042C73.9364 178.016 74.0653 178.036 74.1029 178.238C74.1221 178.34 74.3469 178.385 74.7416 178.364C75.1866 178.341 75.3763 178.386 75.4447 178.531C75.5099 178.67 75.7355 178.734 76.1879 178.743C76.5898 178.751 76.8494 178.817 76.8676 178.915C76.8982 179.079 77.0422 179.112 77.7436 179.111C78.4495 179.111 78.5893 179.143 78.6215 179.315C78.6385 179.407 78.7435 179.465 78.8549 179.445C79.2688 179.37 79.9735 179.492 80.0023 179.646C80.0204 179.743 80.2278 179.798 80.5385 179.788C81.7858 179.749 81.8221 179.754 81.8637 179.978C81.8898 180.117 81.9859 180.181 82.1303 180.154C82.6429 180.059 83.575 180.152 83.6029 180.302C83.6337 180.467 83.7872 180.499 84.4936 180.486C84.741 180.482 84.9143 180.534 84.9955 180.636L85.059 180.737C85.154 180.85 85.3649 180.867 85.9184 180.824C86.5574 180.775 86.7355 180.803 86.8139 180.97C86.8754 181.101 87.0615 181.178 87.3178 181.179C87.6096 181.179 87.7358 181.241 87.765 181.398C87.7939 181.553 87.889 181.602 88.0883 181.564C88.4914 181.489 88.9433 181.592 89.0287 181.768L89.0521 181.84C89.0887 181.917 89.1911 181.959 89.3051 181.938C89.4549 181.91 89.5513 181.972 89.5775 182.113C89.6008 182.237 89.7281 182.339 89.8734 182.35C90.0304 182.361 90.106 182.427 90.0697 182.521C89.9974 182.707 90.2779 182.832 90.6293 182.77C90.8069 182.738 90.9033 182.792 90.9311 182.94C90.9536 183.061 91.0806 183.167 91.2152 183.177C91.3486 183.186 91.4727 183.275 91.4916 183.375C91.5115 183.482 91.6885 183.569 91.9213 183.587C92.1793 183.607 92.3235 183.686 92.3363 183.813C92.3486 183.933 92.4424 183.993 92.5756 183.968C92.7127 183.942 92.8097 184.009 92.8354 184.146C92.8727 184.347 93.3792 184.499 93.6381 184.387C93.6884 184.365 93.7172 184.452 93.7016 184.579C93.6774 184.774 93.7506 184.81 94.1527 184.8C94.5268 184.79 94.6426 184.838 94.6762 185.018C94.7108 185.204 94.7978 185.234 95.1254 185.173C95.448 185.113 95.5397 185.143 95.5727 185.32C95.6217 185.584 95.7295 185.591 97.7543 185.462C99.5765 185.346 99.5366 185.354 99.4936 185.123C99.4631 184.959 99.5585 184.924 100.167 184.875C100.691 184.833 100.837 184.8 100.846 184.688L100.84 184.585C100.852 184.474 101.006 184.428 101.512 184.363C102.017 184.299 102.207 184.233 102.188 184.129C102.16 183.981 102.379 183.902 103.059 183.813C103.312 183.781 103.452 183.698 103.476 183.568C103.5 183.436 103.659 183.345 103.963 183.288C104.304 183.225 104.406 183.158 104.379 183.015C104.349 182.853 104.44 182.819 104.982 182.782C105.535 182.745 105.622 182.709 105.636 182.519C105.649 182.344 105.741 182.293 106.083 182.27C106.421 182.247 106.507 182.2 106.48 182.054C106.454 181.914 106.559 181.846 106.896 181.783C107.19 181.728 107.36 181.634 107.382 181.513C107.404 181.396 107.569 181.298 107.826 181.25C108.112 181.197 108.225 181.122 108.203 181C108.185 180.904 108.269 180.808 108.39 180.785C108.511 180.763 108.625 180.661 108.644 180.559C108.665 180.442 108.83 180.344 109.087 180.296C109.374 180.243 109.487 180.168 109.464 180.046C109.446 179.949 109.536 179.853 109.667 179.828C109.797 179.804 109.919 179.7 109.938 179.598C109.957 179.495 110.071 179.393 110.192 179.37C110.338 179.343 110.396 179.247 110.366 179.084C110.331 178.896 110.376 178.843 110.563 178.856C110.743 178.869 110.795 178.817 110.765 178.653C110.739 178.515 110.805 178.417 110.939 178.392C111.082 178.365 111.168 178.218 111.195 177.954C111.223 177.682 111.298 177.557 111.437 177.555C111.575 177.553 111.625 177.473 111.593 177.301C111.55 177.066 111.591 177.045 112.209 176.982C112.791 176.923 112.875 176.886 112.89 176.681C112.901 176.524 112.981 176.452 113.133 176.463C113.299 176.475 113.347 176.416 113.315 176.243C113.276 176.035 113.327 176.004 113.746 175.982C114.157 175.962 114.216 175.929 114.181 175.738C114.152 175.582 114.222 175.502 114.42 175.465C114.574 175.436 114.708 175.35 114.719 175.273C114.73 175.197 114.901 175.097 115.1 175.053C115.413 174.982 115.462 174.918 115.462 174.581C115.463 174.2 115.769 173.958 115.83 174.29C115.847 174.379 115.949 174.467 116.057 174.487C116.342 174.54 116.354 174.529 116.307 174.274C116.28 174.128 116.336 174.038 116.473 174.005L99.2318 234.32H11.8002C3.96474 234.32 -1.69224 226.82 0.461326 219.286L63.1459 0H150.579Z" fill="#22C55E"/>
<path d="M41 324L15 254H25.8L47 313.6L68.4 254H79L53 324H41ZM86.0088 324V288.72H94.4088V324H86.0088ZM90.2087 283.12C88.6688 283.12 87.3854 282.653 86.3588 281.72C85.3788 280.74 84.8888 279.55 84.8888 278.15C84.8888 276.703 85.3788 275.537 86.3588 274.65C87.3854 273.717 88.6688 273.25 90.2087 273.25C91.7488 273.25 93.0088 273.717 93.9888 274.65C95.0154 275.537 95.5288 276.703 95.5288 278.15C95.5288 279.55 95.0154 280.74 93.9888 281.72C93.0088 282.653 91.7488 283.12 90.2087 283.12ZM104.116 324V288.72H111.606L112.376 295.3C113.216 293.76 114.266 292.453 115.526 291.38C116.786 290.26 118.256 289.397 119.936 288.79C121.662 288.183 123.552 287.88 125.606 287.88V296.77H122.666C121.266 296.77 119.936 296.957 118.676 297.33C117.416 297.657 116.319 298.217 115.386 299.01C114.499 299.757 113.799 300.807 113.286 302.16C112.772 303.467 112.516 305.123 112.516 307.13V324H104.116ZM147.706 324.84C144.206 324.84 141.126 324.093 138.466 322.6C135.806 321.06 133.729 318.913 132.236 316.16C130.743 313.407 129.996 310.233 129.996 306.64C129.996 302.907 130.719 299.64 132.166 296.84C133.659 294.04 135.736 291.847 138.396 290.26C141.103 288.673 144.229 287.88 147.776 287.88C151.229 287.88 154.239 288.65 156.806 290.19C159.373 291.73 161.356 293.807 162.756 296.42C164.156 298.987 164.856 301.88 164.856 305.1C164.856 305.567 164.856 306.08 164.856 306.64C164.856 307.2 164.809 307.783 164.716 308.39H136.016V303H156.386C156.293 300.433 155.429 298.427 153.796 296.98C152.163 295.487 150.133 294.74 147.706 294.74C145.979 294.74 144.393 295.137 142.946 295.93C141.499 296.723 140.356 297.913 139.516 299.5C138.676 301.04 138.256 303 138.256 305.38V307.41C138.256 309.603 138.653 311.493 139.446 313.08C140.286 314.667 141.406 315.88 142.806 316.72C144.253 317.513 145.863 317.91 147.636 317.91C149.596 317.91 151.206 317.49 152.466 316.65C153.773 315.81 154.729 314.69 155.336 313.29H163.876C163.223 315.483 162.149 317.467 160.656 319.24C159.163 320.967 157.319 322.343 155.126 323.37C152.933 324.35 150.459 324.84 147.706 324.84ZM186.682 324.84C183.555 324.84 180.825 324.35 178.492 323.37C176.205 322.343 174.385 320.943 173.032 319.17C171.725 317.35 170.955 315.273 170.722 312.94H179.122C179.355 313.92 179.775 314.83 180.382 315.67C180.989 316.463 181.805 317.093 182.832 317.56C183.905 318.027 185.165 318.26 186.612 318.26C188.012 318.26 189.155 318.073 190.042 317.7C190.929 317.28 191.582 316.743 192.002 316.09C192.422 315.437 192.632 314.737 192.632 313.99C192.632 312.87 192.329 312.007 191.722 311.4C191.115 310.793 190.229 310.327 189.062 310C187.942 309.627 186.589 309.277 185.002 308.95C183.322 308.623 181.689 308.227 180.102 307.76C178.562 307.247 177.162 306.617 175.902 305.87C174.689 305.123 173.709 304.167 172.962 303C172.262 301.833 171.912 300.41 171.912 298.73C171.912 296.677 172.449 294.833 173.522 293.2C174.642 291.567 176.229 290.283 178.282 289.35C180.382 288.37 182.879 287.88 185.772 287.88C189.879 287.88 193.145 288.837 195.572 290.75C198.045 292.617 199.492 295.253 199.912 298.66H191.932C191.699 297.353 191.045 296.35 189.972 295.65C188.899 294.903 187.475 294.53 185.702 294.53C183.882 294.53 182.482 294.88 181.502 295.58C180.569 296.233 180.102 297.12 180.102 298.24C180.102 298.94 180.382 299.593 180.942 300.2C181.549 300.76 182.412 301.25 183.532 301.67C184.652 302.043 186.029 302.417 187.662 302.79C190.275 303.303 192.585 303.91 194.592 304.61C196.599 305.31 198.185 306.337 199.352 307.69C200.519 309.043 201.102 310.957 201.102 313.43C201.149 315.67 200.565 317.653 199.352 319.38C198.185 321.107 196.529 322.46 194.382 323.44C192.235 324.373 189.669 324.84 186.682 324.84ZM223.352 324C220.972 324 218.895 323.627 217.122 322.88C215.395 322.133 214.042 320.897 213.062 319.17C212.082 317.443 211.592 315.11 211.592 312.17V295.79H205.572V288.72H211.592L212.572 279.41H219.992V288.72H229.582V295.79H219.992V312.17C219.992 313.943 220.365 315.18 221.112 315.88C221.905 316.533 223.212 316.86 225.032 316.86H229.372V324H223.352Z" fill="white"/>
</svg>
